<?xml version="1.0" encoding="utf-8"?>
<!-- Generator: Adobe Illustrator 24.0.1, SVG Export Plug-In . SVG Version: 6.00 Build 0)  -->
<svg version="1.1" id="Capa_1" xmlns="http://www.w3.org/2000/svg" xmlns:xlink="http://www.w3.org/1999/xlink" x="0px" y="0px"
	 viewBox="0 0 372 203" style="enable-background:new 0 0 372 203;" xml:space="preserve">
<style type="text/css">
	.st0{fill:#FFFFFF;fill-opacity:0;}
	.st1{fill:none;}
	.st2{opacity:0.7;}
	.st3{fill:#208920;fill-opacity:0;}
	.st4{fill:#208920;}
	.st5{fill:#606060;}
</style>
<rect x="-111" class="st0" width="595.3" height="228"/>
<rect x="-111" y="-134" class="st1" width="595.3" height="850.4"/>
<g transform="translate(68.3699951171875,77.07616424560547)">
	<g transform="matrix(1,0,0,1,71.6300048828125,4.402284559893342)" class="st2">
		<g>
			<rect x="-5.9" y="-61" class="st3" width="105" height="69.9"/>
			<path class="st4" d="M46.6-61C21.2-61-5.9-56.1-5.9-46.9v44.3C-5.9,2.9,4,6.2,11.6,8l3.1,0.7l1.2,0.2v-20.7
				c8.9-1.7,19.5-2.6,30.7-2.6s21.8,0.9,30.7,2.6V8.9l1.3-0.3c7.6-1.5,20.5-5,20.5-11.3v-44.3C99.2-56.1,72.1-61,46.6-61z M13.7,6.1
				C0.9,3.4-3.6-0.1-3.6-2.6s4.6-6.1,17.3-8.8V6.1z M13.7-13.7C8-12.5,0.2-10.4-3.6-6.9v-35.7C0.2-39.2,8-37,13.7-35.9V-13.7z
				 M79.6,6.1v-17.5c12.7,2.7,17.3,6.3,17.3,8.8S92.3,3.4,79.6,6.1z M96.9-6.9c-3.8-3.4-11.7-5.6-17.3-6.8v-22.2
				c5.6-1.2,13.5-3.3,17.3-6.8V-6.9z M78.3-37.9l-0.9,0.2v23.6c-8.9-1.7-19.5-2.5-30.7-2.5c-11.2,0-21.8,0.9-30.7,2.5v-23.6L15-37.9
				c-13.7-2.7-18.6-6.5-18.6-9c0-5.6,20.6-11.8,50.3-11.8s50.3,6.2,50.3,11.8C96.9-44.3,92-40.6,78.3-37.9z"/>
		</g>
	</g>
	<g transform="translate(0,46.91166305541992)">
		<g transform="matrix(1,0,0,1,0,11.038341312509989)">
			<g transform="scale(1)">
				<g>
					<path class="st5" d="M-53.9,16.1h-5.7v-51h5.7V16.1z M-44.5,7.5v-46h5.8v46c0,0.8,0.3,1.4,0.8,2c0.5,0.5,1.2,0.8,1.9,0.8l0,0h7
						v5.8h-7c-2.4,0-4.4-0.8-6.1-2.5C-43.6,11.9-44.5,9.8-44.5,7.5L-44.5,7.5z M13.1,7.5V-25h5.8V7.5c0,2.4-0.8,4.4-2.5,6.1
						c-1.7,1.7-3.7,2.5-6.1,2.5l0,0h-24.7c-2.4,0-4.4-0.8-6.1-2.5c-1.7-1.7-2.5-3.7-2.5-6.1l0,0V-25h5.8V7.5c0,0.8,0.3,1.4,0.8,2
						c0.5,0.5,1.2,0.8,1.9,0.8l0,0h24.7c0.8,0,1.4-0.3,2-0.8C12.8,8.9,13.1,8.2,13.1,7.5L13.1,7.5z M24.9-25h54.3
						c2.4,0,4.4,0.8,6.1,2.5c1.7,1.7,2.5,3.7,2.5,6.1l0,0v32.5H82v-32.5c0-0.8-0.3-1.4-0.8-1.9c-0.6-0.5-1.2-0.8-2-0.8l0,0H62.1
						c-0.7,0-1.4,0.3-1.9,0.8c-0.5,0.5-0.8,1.2-0.8,1.9l0,0v32.5h-5.9v-32.5c0-0.8-0.3-1.4-0.8-1.9c-0.5-0.5-1.2-0.8-1.9-0.8l0,0
						H33.5c-0.8,0-1.4,0.3-1.9,0.8c-0.5,0.5-0.8,1.2-0.8,1.9l0,0v32.5h-5.9V-25z M99.8,16.1H94V-25h5.8V16.1z M94-32.7v-5.8h5.8v5.8
						H94z M107.9-25h33.3c2.4,0,4.4,0.8,6.1,2.5c1.7,1.7,2.5,3.7,2.5,6.1l0,0v32.5h-5.8v-32.5c0-0.8-0.3-1.4-0.8-1.9
						c-0.5-0.5-1.2-0.8-1.9-0.8l0,0h-24.7c-0.8,0-1.4,0.3-2,0.8c-0.6,0.5-0.8,1.2-0.8,1.9l0,0v32.5h-5.8V-25z M157-25h33.2
						c2.4,0,4.5,0.8,6.1,2.5c1.7,1.7,2.5,3.7,2.5,6.1l0,0v32.5h-33.3c-2.4,0-4.4-0.8-6-2.5c-1.7-1.7-2.5-3.7-2.5-6.1l0,0V-7.4h36
						v-9.1c0-0.8-0.3-1.4-0.8-1.9c-0.5-0.5-1.2-0.8-2-0.8l0,0H157V-25z M165.6,10.2H193V-1.6h-30.2v9.1c0,0.8,0.3,1.4,0.8,2
						C164.2,10,164.8,10.2,165.6,10.2L165.6,10.2z M214.4-25L214.4-25h23.1v5.8h-23.1c-0.8,0-1.4,0.3-1.9,0.8
						c-0.5,0.5-0.8,1.2-0.8,1.9l0,0v32.5h-5.8v-32.5c0-2.4,0.8-4.4,2.5-6.1C210-24.2,212-25,214.4-25z M247.9,16.1h-5.8V-25h5.8
						V16.1z M242.1-32.7v-5.8h5.8v5.8H242.1z M254.3-25h33.2c2.4,0,4.5,0.8,6.1,2.5c1.7,1.7,2.5,3.7,2.5,6.1l0,0v32.5h-33.3
						c-2.4,0-4.4-0.8-6-2.5c-1.7-1.7-2.5-3.7-2.5-6.1l0,0V-7.4h36v-9.1c0-0.8-0.3-1.4-0.8-1.9c-0.5-0.5-1.2-0.8-2-0.8l0,0h-33.2V-25
						z M262.9,10.2h27.4V-1.6h-30.2v9.1c0,0.8,0.3,1.4,0.8,2C261.5,10,262.2,10.2,262.9,10.2L262.9,10.2z"/>
				</g>
			</g>
		</g>
		<g transform="matrix(1,0,0,1,5.000007629394531,54.338546243655216)" class="st2">
			<rect x="-55.9" y="3.5" class="st5" width="27.8" height="1.8"/>
			<rect x="254.7" y="3.5" class="st5" width="27.8" height="1.8"/>
			<g transform="translate(18.87000274658203,0)">
				<g transform="scale(1)">
					<path class="st4" d="M-41.7-2.6v13.8h1.8V5h5.3V3.6H-40v-4.7h6.2v-1.5H-41.7z M-26.5,11.5c0.9,0,1.7-0.2,2.4-0.5
						c0.7-0.4,1.3-0.8,1.9-1.5c0.5-0.6,0.9-1.4,1.2-2.3c0.3-0.9,0.4-1.9,0.4-3s-0.1-2.1-0.4-3c-0.3-0.9-0.7-1.6-1.2-2.2
						c-0.5-0.6-1.1-1.1-1.9-1.4c-0.7-0.3-1.5-0.5-2.4-0.5c-0.9,0-1.7,0.2-2.4,0.5c-0.7,0.3-1.3,0.8-1.9,1.4
						c-0.5,0.6-0.9,1.3-1.2,2.2c-0.3,0.9-0.4,1.9-0.4,3s0.1,2.1,0.4,3c0.3,0.9,0.7,1.6,1.2,2.3c0.5,0.6,1.1,1.1,1.9,1.5
						C-28.2,11.3-27.4,11.5-26.5,11.5z M-26.5,9.9c-0.6,0-1.2-0.1-1.7-0.4c-0.5-0.3-0.9-0.6-1.3-1.1c-0.4-0.5-0.6-1.1-0.8-1.8
						c-0.2-0.7-0.3-1.5-0.3-2.3s0.1-1.6,0.3-2.3c0.2-0.7,0.5-1.3,0.8-1.8c0.4-0.5,0.8-0.8,1.3-1.1c0.5-0.3,1.1-0.4,1.7-0.4
						c0.6,0,1.2,0.1,1.7,0.4c0.5,0.3,0.9,0.6,1.3,1.1c0.4,0.5,0.6,1.1,0.8,1.8c0.2,0.7,0.3,1.5,0.3,2.3s-0.1,1.6-0.3,2.3
						c-0.2,0.7-0.5,1.3-0.8,1.8c-0.4,0.5-0.8,0.9-1.3,1.1C-25.3,9.8-25.9,9.9-26.5,9.9z M-15.2-1.1v12.3h1.8V-1.1h4.1v-1.5h-10.1
						v1.5H-15.2z M-2.2,11.5c0.9,0,1.7-0.2,2.4-0.5c0.7-0.4,1.3-0.8,1.9-1.5C2.6,8.9,3,8.2,3.3,7.3c0.3-0.9,0.4-1.9,0.4-3
						s-0.2-2.1-0.4-3C3,0.4,2.6-0.3,2-0.9C1.5-1.5,0.9-2,0.2-2.3c-0.7-0.3-1.5-0.5-2.4-0.5c-0.9,0-1.7,0.2-2.4,0.5
						C-5.3-2-5.9-1.5-6.4-0.9C-7-0.3-7.4,0.4-7.7,1.3s-0.4,1.9-0.4,3s0.2,2.1,0.4,3S-7,8.9-6.4,9.5c0.5,0.6,1.1,1.1,1.9,1.5
						C-3.9,11.3-3.1,11.5-2.2,11.5z M-2.2,9.9c-0.6,0-1.2-0.1-1.7-0.4c-0.5-0.3-0.9-0.6-1.3-1.1C-5.5,7.9-5.8,7.3-6,6.6
						c-0.2-0.7-0.3-1.5-0.3-2.3S-6.2,2.6-6,2c0.2-0.7,0.5-1.3,0.8-1.8c0.4-0.5,0.8-0.8,1.3-1.1c0.5-0.3,1.1-0.4,1.7-0.4
						c0.6,0,1.2,0.1,1.7,0.4C0-0.6,0.4-0.3,0.7,0.2C1.1,0.7,1.4,1.3,1.6,2c0.2,0.7,0.3,1.5,0.3,2.3S1.8,5.9,1.6,6.6
						C1.4,7.3,1.1,7.9,0.7,8.4C0.4,8.9,0,9.3-0.5,9.5C-1,9.8-1.6,9.9-2.2,9.9z M5.9,4.3c0,1.1,0.2,2.1,0.5,3C6.6,8.2,7.1,9,7.6,9.6
						c0.5,0.6,1.2,1.1,1.9,1.4c0.8,0.3,1.6,0.5,2.5,0.5c0.9,0,1.8-0.1,2.5-0.4c0.7-0.3,1.3-0.7,1.8-1.2V4.1h-4.5v1.5h2.9v3.6
						c-0.3,0.2-0.6,0.5-1.1,0.6c-0.4,0.2-0.9,0.2-1.4,0.2c-0.7,0-1.4-0.1-2-0.4C9.7,9.3,9.2,8.9,8.9,8.4C8.5,7.9,8.2,7.3,8,6.6
						C7.8,5.9,7.7,5.2,7.7,4.3C7.7,3.4,7.8,2.7,8,2c0.2-0.7,0.5-1.3,0.9-1.8c0.4-0.5,0.9-0.9,1.4-1.1c0.6-0.3,1.2-0.4,1.9-0.4
						c0.7,0,1.3,0.1,1.7,0.4c0.5,0.2,0.9,0.5,1.2,0.9l1-1.1c-0.4-0.4-0.9-0.8-1.6-1.2c-0.6-0.4-1.4-0.5-2.4-0.5
						c-0.9,0-1.8,0.2-2.6,0.5C8.9-2,8.2-1.5,7.7-0.9c-0.6,0.6-1,1.4-1.3,2.2C6,2.2,5.9,3.2,5.9,4.3z M21.4,4v-5.1h2.3
						c1.1,0,1.9,0.2,2.5,0.5c0.6,0.4,0.9,1,0.9,1.9c0,0.9-0.3,1.6-0.9,2C25.6,3.7,24.8,4,23.7,4H21.4z M27.2,11.2h2l-3.5-6
						c0.9-0.2,1.7-0.7,2.2-1.3c0.6-0.6,0.8-1.5,0.8-2.6c0-0.7-0.1-1.3-0.4-1.8c-0.2-0.5-0.6-0.9-1-1.2C27-2,26.5-2.2,25.9-2.4
						c-0.6-0.1-1.2-0.2-1.9-0.2h-4.3v13.8h1.8V5.4h2.5L27.2,11.2z M37.5,5.6h-4.1L34,3.5c0.2-0.8,0.5-1.5,0.7-2.3
						c0.2-0.8,0.4-1.5,0.6-2.3h0.1c0.2,0.8,0.4,1.6,0.7,2.3c0.2,0.8,0.5,1.5,0.7,2.3L37.5,5.6z M37.9,7l1.3,4.2h1.9L36.4-2.6h-2
						l-4.7,13.8h1.8L32.9,7H37.9z M43-2.6v13.8h1.8V5H50V3.6h-5.3v-4.7H51v-1.5H43z M53.4-2.6v13.8h1.8V-2.6H53.4z M54.7-3.6L57-6
						h-2l-1.9,2.4H54.7z M64.8,5.6h-4.1l0.6-2.1C61.6,2.7,61.8,2,62,1.2c0.2-0.8,0.4-1.5,0.6-2.3h0.1c0.2,0.8,0.5,1.6,0.7,2.3
						c0.2,0.8,0.5,1.5,0.7,2.3L64.8,5.6z M65.3,7l1.3,4.2h1.9L63.8-2.6h-2l-4.7,13.8h1.8L60.2,7H65.3z M80.5,5.6h-4.1L77,3.5
						c0.3-0.8,0.5-1.5,0.7-2.3c0.2-0.8,0.4-1.5,0.6-2.3h0.1c0.2,0.8,0.5,1.6,0.7,2.3c0.2,0.8,0.5,1.5,0.7,2.3L80.5,5.6z M80.9,7
						l1.3,4.2h1.9L79.4-2.6h-2l-4.7,13.8h1.8L75.9,7H80.9z M87.8,4v-5.1h2.3c1.1,0,1.9,0.2,2.5,0.5c0.6,0.4,0.9,1,0.9,1.9
						c0,0.9-0.3,1.6-0.9,2C92,3.7,91.2,4,90.1,4H87.8z M93.6,11.2h2l-3.5-6C93,5,93.8,4.5,94.4,3.9c0.6-0.6,0.8-1.5,0.8-2.6
						c0-0.7-0.1-1.3-0.4-1.8c-0.2-0.5-0.6-0.9-1-1.2c-0.4-0.3-0.9-0.5-1.5-0.7c-0.6-0.1-1.2-0.2-1.9-0.2h-4.3v13.8h1.7V5.4h2.5
						L93.6,11.2z M99.3,4.3c0-0.9,0.1-1.6,0.3-2.3s0.5-1.3,0.8-1.8c0.4-0.5,0.8-0.8,1.3-1.1c0.5-0.3,1.1-0.4,1.7-0.4
						c0.6,0,1.2,0.1,1.7,0.4c0.5,0.3,0.9,0.6,1.3,1.1c0.4,0.5,0.6,1.1,0.8,1.8s0.3,1.5,0.3,2.3c0,0.9-0.1,1.7-0.3,2.4
						s-0.5,1.3-0.8,1.8c-0.4,0.5-0.8,0.9-1.3,1.2c-0.5,0.3-1.1,0.4-1.7,0.4c-0.6,0-1.2-0.1-1.7-0.4c-0.5-0.3-0.9-0.6-1.3-1.2
						C100,8,99.8,7.3,99.6,6.6S99.3,5.1,99.3,4.3z M109.5,14.3l-0.3-1.4c-0.2,0.1-0.4,0.1-0.6,0.1c-0.2,0.1-0.5,0.1-0.8,0.1
						c-0.8,0-1.4-0.2-2-0.4c-0.6-0.3-1.1-0.8-1.4-1.4c0.7-0.1,1.4-0.4,2-0.8c0.6-0.4,1.1-0.9,1.5-1.5c0.4-0.6,0.8-1.3,1-2.2
						c0.2-0.8,0.3-1.7,0.3-2.7c0-1.1-0.1-2.1-0.4-3c-0.3-0.9-0.7-1.6-1.2-2.2c-0.5-0.6-1.1-1.1-1.9-1.4c-0.7-0.3-1.5-0.5-2.4-0.5
						c-0.9,0-1.7,0.2-2.4,0.5c-0.7,0.3-1.3,0.8-1.9,1.4c-0.5,0.6-0.9,1.3-1.2,2.2c-0.3,0.9-0.4,1.9-0.4,3c0,1,0.1,1.9,0.4,2.8
						c0.2,0.8,0.6,1.6,1,2.2c0.4,0.6,1,1.1,1.6,1.5c0.6,0.4,1.3,0.6,2.1,0.7c0.4,0.9,1,1.7,1.9,2.3c0.9,0.6,1.9,0.9,3.2,0.9
						c0.4,0,0.8,0,1.1-0.1C109.1,14.5,109.3,14.4,109.5,14.3z M112.2-2.6v8.1c0,1.1,0.1,2,0.4,2.8c0.2,0.8,0.6,1.4,1,1.8
						c0.4,0.5,1,0.8,1.6,1c0.6,0.2,1.3,0.3,2,0.3c0.7,0,1.3-0.1,2-0.3c0.6-0.2,1.1-0.5,1.6-1c0.4-0.5,0.8-1.1,1.1-1.8
						c0.2-0.8,0.4-1.7,0.4-2.8v-8.1h-1.7v8.1c0,0.8-0.1,1.5-0.2,2.1c-0.2,0.6-0.4,1-0.7,1.3c-0.3,0.3-0.6,0.6-1,0.7
						c-0.4,0.2-0.8,0.2-1.3,0.2c-0.4,0-0.9-0.1-1.3-0.2c-0.4-0.1-0.7-0.4-1-0.7c-0.3-0.3-0.5-0.8-0.7-1.3c-0.2-0.6-0.2-1.3-0.2-2.1
						v-8.1H112.2z M125.8-2.6v13.8h1.7V-2.6H125.8z M134.1-1.1v12.3h1.8V-1.1h4.2v-1.5H130v1.5H134.1z M142.5-2.6v13.8h8.2V9.7h-6.4
						v-5h5.2V3.2h-5.2v-4.3h6.2v-1.5H142.5z M152.8,4.3c0,1.1,0.2,2.1,0.5,3c0.3,0.9,0.7,1.6,1.3,2.2c0.5,0.6,1.2,1.1,1.9,1.4
						c0.7,0.3,1.5,0.5,2.4,0.5c0.9,0,1.7-0.2,2.3-0.5c0.7-0.4,1.3-0.8,1.9-1.5l-1-1.1c-0.4,0.5-0.9,0.9-1.4,1.1
						c-0.5,0.3-1.1,0.4-1.8,0.4c-0.7,0-1.2-0.1-1.8-0.4s-1-0.6-1.3-1.1c-0.4-0.5-0.6-1.1-0.8-1.8c-0.2-0.7-0.3-1.5-0.3-2.3
						c0-0.9,0.1-1.6,0.3-2.3c0.2-0.7,0.5-1.3,0.9-1.8c0.4-0.5,0.8-0.9,1.4-1.1c0.5-0.3,1.1-0.4,1.8-0.4c0.6,0,1.1,0.1,1.5,0.4
						c0.4,0.2,0.8,0.5,1.2,0.9l1-1.1c-0.4-0.5-0.9-0.9-1.5-1.2c-0.6-0.4-1.4-0.5-2.2-0.5c-0.9,0-1.7,0.2-2.5,0.5
						c-0.8,0.3-1.4,0.8-1.9,1.4c-0.5,0.6-1,1.4-1.3,2.2C153,2.2,152.8,3.2,152.8,4.3z M168.1-1.1v12.3h1.8V-1.1h4.2v-1.5h-10.1v1.5
						H168.1z M181.1,11.5c0.9,0,1.7-0.2,2.4-0.5c0.7-0.4,1.3-0.8,1.9-1.5c0.5-0.6,0.9-1.4,1.2-2.3c0.3-0.9,0.4-1.9,0.4-3
						s-0.1-2.1-0.4-3c-0.3-0.9-0.7-1.6-1.2-2.2c-0.5-0.6-1.1-1.1-1.9-1.4c-0.7-0.3-1.5-0.5-2.4-0.5c-0.9,0-1.7,0.2-2.4,0.5
						c-0.7,0.3-1.3,0.8-1.9,1.4c-0.5,0.6-0.9,1.3-1.2,2.2c-0.3,0.9-0.4,1.9-0.4,3s0.1,2.1,0.4,3c0.3,0.9,0.7,1.6,1.2,2.3
						c0.5,0.6,1.1,1.1,1.9,1.5C179.4,11.3,180.2,11.5,181.1,11.5z M181.1,9.9c-0.6,0-1.2-0.1-1.7-0.4c-0.5-0.3-0.9-0.6-1.3-1.1
						c-0.4-0.5-0.6-1.1-0.8-1.8c-0.2-0.7-0.3-1.5-0.3-2.3s0.1-1.6,0.3-2.3c0.2-0.7,0.5-1.3,0.8-1.8c0.4-0.5,0.8-0.8,1.3-1.1
						c0.5-0.3,1.1-0.4,1.7-0.4c0.6,0,1.2,0.1,1.7,0.4c0.5,0.3,0.9,0.6,1.3,1.1c0.4,0.5,0.6,1.1,0.8,1.8c0.2,0.7,0.3,1.5,0.3,2.3
						s-0.1,1.6-0.3,2.3c-0.2,0.7-0.5,1.3-0.8,1.8c-0.4,0.5-0.8,0.9-1.3,1.1C182.3,9.8,181.7,9.9,181.1,9.9z M181.5-3.6l2.4-2.4h-2
						L180-3.6H181.5z M190-2.6v13.8h1.6V4c0-0.7,0-1.5-0.1-2.2c-0.1-0.7-0.1-1.4-0.2-2.1h0.1l1.5,2.8l5,8.7h1.8V-2.6h-1.7v7.1
						c0,0.7,0,1.5,0.1,2.2c0.1,0.8,0.1,1.5,0.1,2.2h-0.1l-1.5-2.9l-5-8.6H190z M203.5-2.6v13.8h1.8V-2.6H203.5z M208.3,4.3
						c0,1.1,0.2,2.1,0.5,3c0.3,0.9,0.7,1.6,1.3,2.2c0.5,0.6,1.2,1.1,1.9,1.4c0.7,0.3,1.5,0.5,2.4,0.5c0.9,0,1.7-0.2,2.4-0.5
						c0.7-0.4,1.3-0.8,1.8-1.5l-1-1.1c-0.5,0.5-0.9,0.9-1.4,1.1c-0.5,0.3-1.1,0.4-1.8,0.4c-0.7,0-1.3-0.1-1.8-0.4
						c-0.5-0.3-1-0.6-1.3-1.1c-0.4-0.5-0.6-1.1-0.8-1.8c-0.2-0.7-0.3-1.5-0.3-2.3c0-0.9,0.1-1.6,0.3-2.3c0.2-0.7,0.5-1.3,0.9-1.8
						c0.4-0.5,0.8-0.9,1.4-1.1c0.5-0.3,1.1-0.4,1.8-0.4c0.6,0,1.1,0.1,1.5,0.4c0.4,0.2,0.8,0.5,1.2,0.9l1-1.1
						c-0.4-0.5-0.9-0.9-1.6-1.2c-0.6-0.4-1.4-0.5-2.2-0.5c-0.9,0-1.7,0.2-2.4,0.5c-0.8,0.3-1.4,0.8-1.9,1.4c-0.6,0.6-1,1.4-1.3,2.2
						C208.4,2.2,208.3,3.2,208.3,4.3z M226.9,5.6h-4.1l0.6-2.1c0.3-0.8,0.5-1.5,0.7-2.3c0.2-0.8,0.4-1.5,0.6-2.3h0.1
						c0.2,0.8,0.5,1.6,0.7,2.3c0.2,0.8,0.5,1.5,0.7,2.3L226.9,5.6z M227.4,7l1.3,4.2h1.9l-4.7-13.8h-2l-4.7,13.8h1.8l1.3-4.2H227.4z
						"/>
				</g>
			</g>
		</g>
	</g>
</g>
</svg>
